<svg width="1200" height="630" viewBox="0 0 1200 630" fill="none" xmlns="http://www.w3.org/2000/svg">
  <defs>
    <linearGradient id="roomsily-og" x1="80" y1="590" x2="1120" y2="40" gradientUnits="userSpaceOnUse">
      <stop offset="0" stop-color="#1f2937" />
      <stop offset="1" stop-color="#0f172a" />
    </linearGradient>
    <linearGradient id="roomsily-og-accent" x1="0" y1="630" x2="1200" y2="0" gradientUnits="userSpaceOnUse">
      <stop offset="0" stop-color="#38bdf8" />
      <stop offset="1" stop-color="#6366f1" />
    </linearGradient>
  </defs>
  <rect width="1200" height="630" rx="48" fill="url(#roomsily-og)" />
  <path d="M160 540C340 450 420 140 720 200C940 244 960 420 1080 470" stroke="url(#roomsily-og-accent)" stroke-width="120" stroke-opacity="0.12" fill="none" stroke-linecap="round" />
  <circle cx="1020" cy="120" r="120" fill="#38bdf8" fill-opacity="0.1" />
  <circle cx="220" cy="110" r="80" fill="#6366f1" fill-opacity="0.12" />
  <g transform="translate(220,210)">
    <rect width="120" height="120" rx="36" fill="url(#roomsily-og-accent)" />
    <path d="M36 30h48c21.9 0 38.5 16.5 38.5 37.4 0 18.6-11.8 32.3-29.5 36.4l30.5 39.4H97.6L70.1 104H54.7v39.2H36V30zm45.5 52.5c10.9 0 18.4-7 18.4-16 0-8.9-7-15.1-18.2-15.1H59.5v31.1h22z" fill="white" />
  </g>
  <g transform="translate(380,205)">
    <text x="0" y="0" font-family="'Inter', 'Segoe UI', sans-serif" font-size="92" font-weight="600" fill="white" letter-spacing="0.02em">Roomsily</text>
  </g>
  <g transform="translate(380,300)">
    <text x="0" y="0" font-family="'Inter', 'Segoe UI', sans-serif" font-size="32" font-weight="500" fill="#cbd5f5">www.roomsily • The modern co-living HQ</text>
  </g>
  <g transform="translate(380,370)" fill="#cbd5f5" font-family="'Inter', 'Segoe UI', sans-serif" font-size="24" font-weight="400">
    <text y="0">• Stripe-powered autopay and transparent roommate ledgers</text>
    <text y="44">• Cal.com amenity booking with instant notifications</text>
    <text y="88">• Documenso document vault, visitors, and maintenance tracking</text>
  </g>
</svg>
